<svg xmlns="http://www.w3.org/2000/svg" viewBox="0 0 24 24">

  <symbol id="menu-1">
    <path d="M24 6h-24v-4h24v4zm0 4h-24v4h24v-4zm0 8h-24v4h24v-4z"/>
  </symbol>

  <symbol id="checkbox-28">
    <path
      d="M12 2c5.514 0 10 4.486 10 10s-4.486 10-10 10-10-4.486-10-10 4.486-10 10-10zm0-2c-6.627 0-12 5.373-12 12s5.373 12 12 12 12-5.373 12-12-5.373-12-12-12zm0 6c-3.313 0-6 2.687-6 6s2.687 6 6 6c3.314 0 6-2.687 6-6s-2.686-6-6-6z"/>
  </symbol>

  <symbol id="circle-2">
    <path
      d="M12 2c5.514 0 10 4.486 10 10s-4.486 10-10 10-10-4.486-10-10 4.486-10 10-10zm0-2c-6.627 0-12 5.373-12 12s5.373 12 12 12 12-5.373 12-12-5.373-12-12-12z"/>
  </symbol>

  <symbol id="square-10" fill-rule="evenodd" clip-rule="evenodd">
    <path
      d="M19 0h-14c-2.76 0-5 2.239-5 5v14c0 2.76 2.239 5 5 5h14c2.759 0 5-2.239 5-5v-14c0-2.76-2.239-5-5-5m0 2c1.66 0 3 1.345 3 3v14c0 1.654-1.338 3-3 3h-14c-1.654 0-3-1.339-3-3v-14c0-1.658 1.342-3 3-3h14z"/>
  </symbol>

  <symbol id="checkbox-9">
    <path
      d="M10.041 17l-4.5-4.319 1.395-1.435 3.08 2.937 7.021-7.183 1.422 1.409-8.418 8.591zm-5.041-15c-1.654 0-3 1.346-3 3v14c0 1.654 1.346 3 3 3h14c1.654 0 3-1.346 3-3v-14c0-1.654-1.346-3-3-3h-14zm19 3v14c0 2.761-2.238 5-5 5h-14c-2.762 0-5-2.239-5-5v-14c0-2.761 2.238-5 5-5h14c2.762 0 5 2.239 5 5z"/>
  </symbol>

  <symbol id="x-mark-circle-lined">
    <path
      d="m12.002 2.005c5.518 0 9.998 4.48 9.998 9.997 0 5.518-4.48 9.998-9.998 9.998-5.517 0-9.997-4.48-9.997-9.998 0-5.517 4.48-9.997 9.997-9.997zm0 1.5c-4.69 0-8.497 3.807-8.497 8.497s3.807 8.498 8.497 8.498 8.498-3.808 8.498-8.498-3.808-8.497-8.498-8.497zm0 7.425 2.717-2.718c.146-.146.339-.219.531-.219.404 0 .75.325.75.75 0 .193-.073.384-.219.531l-2.717 2.717 2.727 2.728c.147.147.22.339.22.531 0 .427-.349.75-.75.75-.192 0-.384-.073-.53-.219l-2.729-2.728-2.728 2.728c-.146.146-.338.219-.53.219-.401 0-.751-.323-.751-.75 0-.192.073-.384.22-.531l2.728-2.728-2.722-2.722c-.146-.147-.219-.338-.219-.531 0-.425.346-.749.75-.749.192 0 .385.073.531.219z"/>
  </symbol>

  <symbol id="arrow-64">
    <path d="M16.67 0l2.83 2.829-9.339 9.175 9.339 9.167-2.83 2.829-12.17-11.996z"/>
  </symbol>

</svg>
